PathFileType	4	(X/Y/Z)	Static_1_OpenSim.trc																																																																																																																																								
DataRate	CameraRate	NumFrames	NumMarkers	Units	OrigDataRate	OrigDataStartFrame	OrigNumFrames																																																																																																																																				
100	100	6	46	mm	100	420	559																																																																																																																																				
Frame#	Time	R.Acromium			L.Acromium			Sternum			R.Bicep			L.Bicep			R.Elbow			L.Elbow			R.Wrist.Med			R.Wrist.Lat			L.Wrist.Med			L.Wrist.Lat			R.ASIS			R.PSIS			S2			L.PSIS			L.ASIS			R.TH1			R.TH2			R.TH3			R.Knee			R.SH1			R.SH2			R.SH3			R.SH4			R.Ankle			R.Heel			R.MT5			R.MT1			R.Toe.Tip			L.TH1			L.TH2			L.TH3			L.TH4			L.Knee			L.SH1			L.SH2			L.SH3			L.Ankle			L.Heel			L.MT5			L.MT1			L.Toe.Tip			R.MKnee			R.MAnkle			L.MKnee			L.MAnkle		
		X1	Y1	Z1	X2	Y2	Z2	X3	Y3	Z3	X4	Y4	Z4	X5	Y5	Z5	X6	Y6	Z6	X7	Y7	Z7	X8	Y8	Z8	X9	Y9	Z9	X10	Y10	Z10	X11	Y11	Z11	X12	Y12	Z12	X13	Y13	Z13	X14	Y14	Z14	X15	Y15	Z15	X16	Y16	Z16	X17	Y17	Z17	X18	Y18	Z18	X19	Y19	Z19	X20	Y20	Z20	X21	Y21	Z21	X22	Y22	Z22	X23	Y23	Z23	X24	Y24	Z24	X25	Y25	Z25	X26	Y26	Z26	X27	Y27	Z27	X28	Y28	Z28	X29	Y29	Z29	X30	Y30	Z30	X31	Y31	Z31	X32	Y32	Z32	X33	Y33	Z33	X34	Y34	Z34	X35	Y35	Z35	X36	Y36	Z36	X37	Y37	Z37	X38	Y38	Z38	X39	Y39	Z39	X40	Y40	Z40	X41	Y41	Z41	X42	Y42	Z42	X43	Y43	Z43	X44	Y44	Z44	X45	Y45	Z45	X46	Y46	Z46
																																																																																																																																											
420	4.19	940.7445	1483.506	-324.686	902.0166	1481.4128	-754.6307	1031.7605	1302.6615	-544.2905	954.9117	1262.2076	-296.6372	919.1491	1258.4634	-782.1924	901.2646	1137.6792	-251.1365	865.8094	1138.7025	-816.6171	1030.9228	906.2965	-275.6116	980.0425	895.4322	-235.9127	990.7627	910.4488	-802.1932	941.0244	903.029	-841.68	1001.5849	1015.362	-426.0802	808.3496	1048.821	-480.0275	796.5747	1038.1564	-535.0997	799.0438	1046.7726	-605.395	984.1751	1013.7154	-677.2333	970.7693	767.0494	-342.6392	888.4049	766.7722	-338.9631	887.8514	656.9694	-343.8749	917.4487	523.1094	-359.6065	884.561	408.4457	-328.8983	883.7559	295.6522	-325.9164	808.6527	410.1557	-361.3453	806.82	296.944	-351.8673	858.6828	91.967	-349.2156	809.7492	55.8567	-423.8536	952.1941	32.8147	-297.8334	1013.4459	37.7189	-392.2025	1050.4452	47.7938	-328.4189	938.3372	774.2696	-748.7537	929.5747	667.4712	-749.557	853.7044	777.7589	-742.1563	850.3567	667.9659	-735.1924	884.1029	528.5942	-727.2369	871.165	419.7401	-756.2498	790.3041	422.4507	-743.5563	789.7237	312.2881	-742.2815	839.09	92.79	-737.6569	785.2581	52.4758	-668.0512	926.7806	32.349	-792.0142	990.6633	36.4192	-696.5295	1030.9262	45.9021	-765.4819	920.4782	503.2193	-470.6227	895.4871	99.8857	-434.2233	904.2306	503.2267	-619.2724	873.7683	105.3505	-654.5991
421	4.2	940.7347	1483.4889	-324.6351	901.9562	1481.4615	-754.642	1031.7462	1302.6216	-544.2577	954.8752	1262.1495	-296.6529	919.107	1258.4138	-782.1618	901.2127	1137.6637	-251.1119	865.7726	1138.7413	-816.5635	1030.8639	906.2424	-275.6631	980.0003	895.3812	-235.9613	990.7219	910.4358	-802.1973	940.9871	903.0283	-841.657	1001.5892	1015.369	-426.075	808.3261	1048.8467	-480.0288	796.4707	1038.1796	-535.0858	798.9971	1046.766	-605.3806	984.1595	1013.754	-677.2468	970.751	767.0099	-342.6514	888.418	766.7439	-338.9874	887.8448	656.9633	-343.8972	917.1137	523.2516	-359.3635	884.5479	408.4297	-328.9399	883.8082	295.6381	-326.0295	808.6544	410.139	-361.4443	806.8157	296.9003	-351.8372	858.7004	91.937	-349.2372	809.7182	55.8352	-423.8534	952.2148	32.7956	-297.8408	1013.4196	37.7546	-392.2168	1050.4395	47.8183	-328.4088	938.3554	774.3159	-748.7496	929.5336	667.5148	-749.5613	853.6751	777.7266	-742.1215	850.3552	667.949	-735.2089	884.0934	528.5739	-727.2471	871.1639	419.7355	-756.2466	790.2664	422.4456	-743.5579	789.7075	312.2676	-742.2781	839.0235	92.7879	-737.6672	785.2667	52.4879	-668.0641	926.8029	32.3352	-791.9893	990.6885	36.4252	-696.4996	1030.9196	45.9058	-765.4814	920.4532	503.1847	-470.6324	895.4688	99.8112	-434.2216	904.2376	503.234	-619.2833	873.7993	105.3609	-654.6201
422	4.21	940.6748	1483.4717	-324.614	902.0041	1481.5217	-754.5156	1031.6996	1302.6138	-544.2223	954.8065	1262.1373	-296.6358	919.1708	1258.4928	-782.0662	901.1526	1137.6146	-251.1624	865.7509	1138.7546	-816.6064	1030.7823	906.1885	-275.7072	979.9586	895.3674	-236.0358	990.7141	910.4788	-802.1802	940.9633	903.0802	-841.6555	1001.5118	1015.3793	-426.081	808.2695	1048.8523	-480.0442	796.3587	1038.2087	-535.1039	798.9667	1046.791	-605.4364	984.1282	1013.7859	-677.2327	970.734	767.0034	-342.6615	888.3661	766.764	-338.9701	887.8164	656.9727	-343.8516	917.0924	523.2446	-359.4644	884.5403	408.4409	-328.9562	883.7854	295.6281	-326.0118	808.6495	410.1647	-361.3398	806.7751	296.9169	-351.8605	858.7073	91.9715	-349.2668	809.7498	55.7999	-423.848	952.2143	32.797	-297.8463	1013.4181	37.7632	-392.2121	1050.4336	47.8265	-328.3877	938.3116	774.3917	-748.7555	929.5339	667.6232	-749.5568	853.6373	777.7745	-742.0968	850.2966	667.9545	-735.1637	884.113	528.5786	-727.2422	871.1663	419.7502	-756.181	790.2797	422.4764	-743.5716	789.7115	312.3434	-742.2649	839.1132	92.8275	-737.6505	785.255	52.5225	-668.0305	926.8048	32.3834	-791.9733	990.6938	36.4543	-696.47	1030.9143	45.9692	-765.4595	920.4377	503.1695	-470.612	895.4612	99.8191	-434.2088	904.2535	503.2403	-619.359	873.7886	105.3636	-654.592
423	4.22	940.6386	1483.4323	-324.614	901.9632	1481.5297	-754.5369	1031.6365	1302.592	-544.2054	954.7351	1262.0938	-296.5906	919.1516	1258.5308	-782.0536	901.075	1137.6178	-251.1567	865.7814	1138.7728	-816.5063	1030.7188	906.1594	-275.7353	979.8952	895.3215	-236.0603	990.6813	910.5222	-802.1561	940.9166	903.1064	-841.6399	1001.4995	1015.3592	-426.0644	808.2711	1048.8638	-480.0428	796.4119	1038.1857	-535.1324	798.9287	1046.774	-605.3854	984.1149	1013.8256	-677.2313	970.6982	767.0405	-342.6653	888.3431	766.7676	-338.9765	887.8184	656.9416	-343.8755	917.3975	523.0801	-359.6632	884.5236	408.4414	-328.9552	883.7447	295.6599	-325.9293	808.577	410.1878	-361.3336	806.7639	296.8992	-351.9185	858.7114	91.9477	-349.2537	809.7213	55.8017	-423.8309	952.1902	32.8053	-297.8387	1013.4223	37.7945	-392.193	1050.4179	47.8482	-328.39	938.2454	774.3769	-748.7547	929.5433	667.6792	-749.5386	853.5519	777.7891	-742.1305	850.2966	668.006	-735.1974	884.1348	528.5817	-727.2258	871.139	419.7641	-756.2282	790.2702	422.4911	-743.5112	789.7346	312.3384	-742.2248	839.0451	92.8249	-737.6824	785.2383	52.5061	-668.029	926.7463	32.382	-791.9674	990.6668	36.4788	-696.4785	1030.9165	45.9935	-765.4215	920.4139	503.1996	-470.6327	895.4694	99.8627	-434.2079	904.264	503.2097	-619.336	873.7269	105.3336	-654.6191
424	4.23	940.5889	1483.3943	-324.635	901.9791	1481.5577	-754.5222	1031.5757	1302.5852	-544.1659	954.6698	1262.0701	-296.6196	919.118	1258.5593	-782.0117	901.0402	1137.545	-251.2112	865.7481	1138.7938	-816.5414	1030.6797	906.3752	-275.7707	979.6117	895.2322	-236.3121	990.6276	910.54	-802.1424	940.8508	903.1127	-841.6159	1001.4243	1015.3693	-426.1043	808.2517	1048.8795	-480.0001	796.3302	1038.1804	-535.1108	798.8831	1046.7742	-605.4277	984.0569	1013.8055	-677.2234	970.6693	767.0594	-342.6538	888.3076	766.8058	-338.912	887.8644	656.8329	-343.9074	917.0865	523.2038	-359.5052	884.5078	408.4583	-328.9352	883.7369	295.6395	-325.9182	808.6205	410.1757	-361.3848	806.7855	296.9069	-351.8353	858.6903	91.9479	-349.2558	809.7017	55.8416	-423.8684	952.168	32.767	-297.825	1013.4116	37.7634	-392.1932	1050.421	47.8545	-328.3769	938.1775	774.4012	-748.7789	929.5497	667.6478	-749.4918	853.5134	777.8332	-742.1055	850.3046	668.0051	-735.1771	884.1015	528.5785	-727.2495	871.1737	419.742	-756.1799	790.2525	422.4775	-743.535	789.7039	312.3139	-742.2551	839.0094	92.8222	-737.6681	785.2381	52.5215	-668.0255	926.7519	32.3903	-791.9766	990.6937	36.5282	-696.4376	1030.8889	45.9668	-765.4416	920.3862	503.1797	-470.6394	895.4485	99.8582	-434.2283	904.2415	503.2139	-619.2958	873.7629	105.3889	-654.5823
425	4.24	940.5698	1483.3243	-324.5819	901.9954	1481.5226	-754.4283	1031.552	1302.5791	-544.1374	954.619	1262.0291	-296.5916	919.0909	1258.5442	-781.9812	900.967	1137.5004	-251.2205	865.7481	1138.795	-816.5385	1030.5896	906.3135	-275.8298	979.5389	895.1804	-236.3483	990.5335	910.4954	-802.1556	940.8189	903.1155	-841.5982	1001.3711	1015.3434	-426.0904	808.2347	1048.8439	-480.0486	796.3475	1038.1802	-535.1134	798.8666	1046.7769	-605.4255	984.0381	1013.8107	-677.2525	970.6259	767.0045	-342.6459	888.2612	766.7719	-338.872	887.7683	656.9636	-343.8644	917.3821	523.0883	-359.6255	884.4831	408.4143	-328.9469	883.7798	295.6486	-326.0494	808.6203	410.1777	-361.3542	806.8323	296.8917	-351.9052	858.7219	91.9481	-349.2196	809.7308	55.7969	-423.845	952.1753	32.7974	-297.8291	1013.4332	37.742	-392.1807	1050.4337	47.8161	-328.393	938.2589	774.4093	-748.756	929.5375	667.6068	-749.5221	853.562	777.7626	-742.1432	850.2913	667.9841	-735.2043	884.0877	528.5555	-727.2413	871.1748	419.7452	-756.2696	790.2881	422.4291	-743.533	789.7266	312.3223	-742.2321	839.0771	92.8465	-737.6359	785.2335	52.484	-668.0543	926.7675	32.3731	-791.9739	990.6945	36.4665	-696.4603	1030.9121	45.9212	-765.4584	920.3914	503.166	-470.6843	895.4395	99.8061	-434.2088	904.1873	503.1708	-619.2665	873.7566	105.3506	-654.5847
